<?xml version="1.0" encoding="UTF-8"?>
<svg version="1.1" xmlns="http://www.w3.org/2000/svg" width="540" height="350">
<path d="M0 0 C178.2 0 356.4 0 540 0 C540 115.5 540 231 540 350 C361.8 350 183.6 350 0 350 C0 234.5 0 119 0 0 Z " fill="#FEFEFE" transform="translate(0,0)"/>
<path d="M0 0 C0 0.99 0 1.98 0 3 C0.99 3 1.98 3 3 3 C2.67 5.31 2.34 7.62 2 10 C6.43093198 11.81301758 6.43093198 11.81301758 11 11 C16.41617057 13.40517758 22.09176508 16.71230015 25 22 C25.4375 25.1875 25.4375 25.1875 25 28 C24.01 28.66 23.02 29.32 22 30 C21.63501966 32.89608399 21.63501966 32.89608399 21.8125 36.125 C21.83957031 37.22070312 21.86664063 38.31640625 21.89453125 39.4453125 C21.94673828 40.70988281 21.94673828 40.70988281 22 42 C19.525 42.495 19.525 42.495 17 43 C18.65 43 20.3 43 22 43 C24.125 49.75 24.125 49.75 23 52 C23.99 52 24.98 52 26 52 C26.495 55.465 26.495 55.465 27 59 C27.66 59 28.32 59 29 59 C29.495 61.97 29.495 61.97 30 65 C30.67546875 65.10957031 31.3509375 65.21914062 32.046875 65.33203125 C33.38492188 65.56986328 33.38492188 65.56986328 34.75 65.8125 C36.07257813 66.03873047 36.07257813 66.03873047 37.421875 66.26953125 C40.19843056 67.05622199 41.74539577 68.25073809 44 70 C46.35065178 69.71433121 46.35065178 69.71433121 49 69 C53.50106435 68.48768373 56.14248192 68.42832128 60 71 C60.66 71.66 61.32 72.32 62 73 C61.505 74.98 61.505 74.98 61 77 C57.62537285 76.45276317 55.91765 75.9451 53 74 C51.68 74 50.36 74 49 74 C50.048355 76.74185153 51.12757769 79.21590071 52.625 81.75 C54.83179043 86.96605011 54.98079693 91.32616076 53.015625 96.68359375 C52.14889481 98.65513741 51.26932812 100.62107369 50.37890625 102.58203125 C47.85442804 108.83959055 46.49173885 115.43301556 45 122 C44.34 122 43.68 122 43 122 C42.67 121.67 42.34 121.34 42 121 C42 121.99 42 122.98 42 124 C42.99 124 43.98 124 45 124 C44.3555021 126.7498577 43.53150017 129.34905653 42.5625 132 C40.67945736 137.55727219 39.85914548 143.21248361 39 149 C38.67005825 151.00056231 38.33765531 153.00072513 38 155 C36.35 155.33 34.7 155.66 33 156 C33.30731987 153.35346869 33.62059322 150.707885 33.9375 148.0625 C34.02451172 147.30775391 34.11152344 146.55300781 34.20117188 145.77539062 C34.88671875 140.11328125 34.88671875 140.11328125 36 139 C36.36760731 136.67182036 36.70241581 134.3381615 37 132 C37.99 131.67 38.98 131.34 40 131 C40 130.34 40 129.68 40 129 C39.34 129 38.68 129 38 129 C37.74977001 121.61821527 37.74977001 121.61821527 39.0625 118.375 C40.64399949 114.36853463 39.31715366 110.95146098 38 107 C37.80664062 107.55429688 37.61328125 108.10859375 37.4140625 108.6796875 C37.02347656 109.76636719 37.02347656 109.76636719 36.625 110.875 C36.24214844 111.95394531 36.24214844 111.95394531 35.8515625 113.0546875 C35 115 35 115 33 117 C32.01 117 31.02 117 30 117 C29.83232136 115.04175306 29.66588795 113.08339945 29.5 111.125 C29.4071875 110.03445312 29.314375 108.94390625 29.21875 107.8203125 C29.09437042 106.21670436 29 104.60842449 29 103 C28.35747635 100.9921136 27.69258229 98.99117408 27 97 C26.505 98.485 26.505 98.485 26 100 C26.66 100 27.32 100 28 100 C27.67 101.65 27.34 103.3 27 105 C26.01 105 25.02 105 24 105 C22.94603303 110.69142165 23.24531861 114.85587054 24.5078125 120.4765625 C25.50897557 125.60950966 25.80334567 130.16378132 23.6875 135 C22 137 22 137 19 138 C18.34 134.04 17.68 130.08 17 126 C17 127.0725 17 128.145 17 129.25 C17 131.83333333 17 134.41666667 17 137 C17.804375 137.474375 18.60875 137.94875 19.4375 138.4375 C22 140 22 140 22.8125 142.6875 C22.874375 143.450625 22.93625 144.21375 23 145 C22.37480469 145.07347656 21.74960937 145.14695313 21.10546875 145.22265625 C18.81922278 145.79552601 18.81922278 145.79552601 17.98828125 147.99609375 C17.65376953 149.20458984 17.65376953 149.20458984 17.3125 150.4375 C16.00377358 154.99245283 16.00377358 154.99245283 15 157 C15 158.32 15 159.64 15 161 C10.92857143 164 10.92857143 164 8 164 C8.4979837 160.26512223 8.87491756 158.18762365 11 155 C11.7013284 152.67684969 12.36485174 150.34210921 13 148 C13.45375 146.96875 13.9075 145.9375 14.375 144.875 C14.58125 143.92625 14.7875 142.9775 15 142 C13.2889924 139.360962 13.2889924 139.360962 11 137 C9.27070231 133.54140463 8.60399614 130.86103768 9 127 C9.33257812 126.40832031 9.66515625 125.81664062 10.0078125 125.20703125 C11.26057907 122.42036546 11.19741218 120.29131138 11.125 117.25 C11.10695313 116.26515625 11.08890625 115.2803125 11.0703125 114.265625 C11.04710937 113.51796875 11.02390625 112.7703125 11 112 C10.0925 111.71125 9.185 111.4225 8.25 111.125 C5.67797092 110.23468224 3.38653234 109.28505587 1 108 C0.77441406 108.58394531 0.54882812 109.16789062 0.31640625 109.76953125 C-1.36104286 112.61173731 -3.35082275 113.82639202 -6.0625 115.6875 C-9.74966306 118.43128453 -9.74966306 118.43128453 -11.80859375 122.37890625 C-12.04054246 124.7146511 -12.04054246 124.7146511 -11.9375 126.921875 C-12 129 -12 129 -13.046875 130.984375 C-14.26254961 133.55522786 -13.94044771 134.77553064 -13.25 137.5 C-12.97929687 138.62921875 -12.97929687 138.62921875 -12.703125 139.78125 C-11.98808468 142.03759944 -11.24116343 143.98199328 -10 146 C-7.44480079 146.81171228 -7.44480079 146.81171228 -5 147 C-5 147.66 -5 148.32 -5 149 C-4.34 149 -3.68 149 -3 149 C-3 150.98 -3 152.96 -3 155 C-4.65 154.67 -6.3 154.34 -8 154 C-8 153.34 -8 152.68 -8 152 C-8.9590625 151.8453125 -8.9590625 151.8453125 -9.9375 151.6875 C-10.9584375 151.3471875 -10.9584375 151.3471875 -12 151 C-12.33 150.01 -12.66 149.02 -13 148 C-15.01508358 147.26676204 -15.01508358 147.26676204 -17 147 C-17.34058393 144.52164369 -17.67256479 142.0426005 -18 139.5625 C-18.09539062 138.87478516 -18.19078125 138.18707031 -18.2890625 137.47851562 C-19.56837718 127.65520648 -18.8816905 120.31875338 -15.5 110.9375 C-15.16613281 109.97650391 -14.83226562 109.01550781 -14.48828125 108.02539062 C-13.67111798 105.67896466 -12.84160182 103.3377473 -12 101 C-11.34 101 -10.68 101 -10 101 C-10.30035156 100.51273437 -10.60070312 100.02546875 -10.91015625 99.5234375 C-14.7614836 92.34299668 -14.18880209 85.9050259 -13 78 C-12.505 76.515 -12.505 76.515 -12 75 C-13.485 74.505 -13.485 74.505 -15 74 C-15.70776367 72.29760742 -15.70776367 72.29760742 -16.16796875 70.10546875 C-16.33876953 69.31462891 -16.50957031 68.52378906 -16.68554688 67.70898438 C-16.85119141 66.87689453 -17.01683594 66.04480469 -17.1875 65.1875 C-17.36474609 64.36701172 -17.54199219 63.54652344 -17.72460938 62.70117188 C-18.50350976 58.99312488 -19 55.82083679 -19 52 C-20.11375 51.814375 -20.11375 51.814375 -21.25 51.625 C-23.80141485 51.04513299 -25.7267573 50.26291261 -28 49 C-28 48.34 -28 47.68 -28 47 C-28.66 47 -29.32 47 -30 47 C-29.09145048 43.36580193 -28.54428265 41.43263493 -25.5625 39.0625 C-22.31555243 36.44910317 -21.52974158 33.82435395 -20 30 C-17.98060136 27.4757517 -17.15499404 27.05166468 -14 26 C-14.804375 25.608125 -15.60875 25.21625 -16.4375 24.8125 C-19 23 -19 23 -19.875 20.5 C-20 18 -20 18 -19 15 C-18.34 15 -17.68 15 -17 15 C-16.731875 14.38125 -16.46375 13.7625 -16.1875 13.125 C-15 11 -15 11 -12 9 C-11.67 7.845 -11.34 6.69 -11 5.5 C-9.22045065 -0.72842273 -5.77242405 -0.21782732 0 0 Z " fill="#181818" transform="translate(264,67)"/>
<path d="M0 0 C0 0.99 0 1.98 0 3 C0.99 3 1.98 3 3 3 C2.67 5.31 2.34 7.62 2 10 C6.43093198 11.81301758 6.43093198 11.81301758 11 11 C16.41617057 13.40517758 22.09176508 16.71230015 25 22 C25.4375 25.1875 25.4375 25.1875 25 28 C24.01 28.66 23.02 29.32 22 30 C21.63501966 32.89608399 21.63501966 32.89608399 21.8125 36.125 C21.83957031 37.22070312 21.86664063 38.31640625 21.89453125 39.4453125 C21.94673828 40.70988281 21.94673828 40.70988281 22 42 C19.525 42.495 19.525 42.495 17 43 C18.65 43 20.3 43 22 43 C24.125 49.75 24.125 49.75 23 52 C23.99 52 24.98 52 26 52 C26.495 55.465 26.495 55.465 27 59 C27.66 59 28.32 59 29 59 C27.36477772 69.46542261 27.36477772 69.46542261 25.25 74.4375 C23.66045494 77.81498183 23.66045494 77.81498183 24.8125 80.5 C25.204375 80.995 25.59625 81.49 26 82 C26 80.02 26 78.04 26 76 C26.99 76.66 27.98 77.32 29 78 C29 78.66 29 79.32 29 80 C29.66 80 30.32 80 31 80 C31.33 81.98 31.66 83.96 32 86 C27.8794254 87.99785435 24.54805635 88.17835515 20 88 C19.34 86.68 18.68 85.36 18 84 C18.66 84 19.32 84 20 84 C19.54625 83.195625 19.0925 82.39125 18.625 81.5625 C17.28885225 78.633253 16.60349433 76.46918704 16 73.375 C15.30353409 69.86315919 14.40251314 67.73012856 12 65 C12 64.34 12 63.68 12 63 C9.525 63.495 9.525 63.495 7 64 C6.67 66.64 6.34 69.28 6 72 C6.66 72 7.32 72 8 72 C8 72.99 8 73.98 8 75 C6.02 75.495 6.02 75.495 4 76 C4.33 76.99 4.66 77.98 5 79 C4.401875 79.144375 3.80375 79.28875 3.1875 79.4375 C1.43849596 79.8872439 -0.28677023 80.42892341 -2 81 C-2.33 82.65 -2.66 84.3 -3 86 C-3.66 86 -4.32 86 -5 86 C-4.67 87.98 -4.34 89.96 -4 92 C-4.99 92.495 -4.99 92.495 -6 93 C-6.53364887 90.94077867 -7.05142189 88.87743893 -7.5625 86.8125 C-7.85253906 85.66394531 -8.14257812 84.51539063 -8.44140625 83.33203125 C-9.1751978 78.95493899 -8.38073945 76.14221836 -7 72 C-7.763125 72.515625 -8.52625 73.03125 -9.3125 73.5625 C-10.199375 74.036875 -11.08625 74.51125 -12 75 C-13.485 74.505 -13.485 74.505 -15 74 C-15.70776367 72.29760742 -15.70776367 72.29760742 -16.16796875 70.10546875 C-16.33876953 69.31462891 -16.50957031 68.52378906 -16.68554688 67.70898438 C-16.85119141 66.87689453 -17.01683594 66.04480469 -17.1875 65.1875 C-17.36474609 64.36701172 -17.54199219 63.54652344 -17.72460938 62.70117188 C-18.50350976 58.99312488 -19 55.82083679 -19 52 C-20.11375 51.814375 -20.11375 51.814375 -21.25 51.625 C-23.80141485 51.04513299 -25.7267573 50.26291261 -28 49 C-28 48.34 -28 47.68 -28 47 C-28.66 47 -29.32 47 -30 47 C-29.09145048 43.36580193 -28.54428265 41.43263493 -25.5625 39.0625 C-22.31555243 36.44910317 -21.52974158 33.82435395 -20 30 C-17.98060136 27.4757517 -17.15499404 27.05166468 -14 26 C-14.804375 25.608125 -15.60875 25.21625 -16.4375 24.8125 C-19 23 -19 23 -19.875 20.5 C-20 18 -20 18 -19 15 C-18.34 15 -17.68 15 -17 15 C-16.731875 14.38125 -16.46375 13.7625 -16.1875 13.125 C-15 11 -15 11 -12 9 C-11.67 7.845 -11.34 6.69 -11 5.5 C-9.22045065 -0.72842273 -5.77242405 -0.21782732 0 0 Z " fill="#080808" transform="translate(264,67)"/>
<path d="M0 0 C5.7215761 2.8545006 8.26113526 7.85430178 11.02734375 13.38671875 C11.662661 21.81248356 12.10517861 30.20609951 7.02734375 37.38671875 C3.19840705 41.53302721 -0.73849407 44.13847851 -6.34765625 44.76171875 C-12.16007839 44.1604337 -15.39908482 41.18709579 -19.22265625 37.01171875 C-24.48085542 30.47338208 -24.8020144 23.54382356 -23.97265625 15.38671875 C-22.24621057 8.594654 -18.68217603 4.3243186 -12.97265625 0.38671875 C-9.03218882 -1.58351496 -4.15278309 -1.29106326 0 0 Z " fill="#060606" transform="translate(266.97265625,245.61328125)"/>
<path d="M0 0 C6.00533771 3.00266886 9.9853714 7.6649497 12.4609375 13.921875 C14.34612513 21.1894099 13.55445065 29.37749722 10 36 C6.84881622 40.06930646 3.20026184 44.00947394 -2 45 C-6.99526804 45.22705764 -10.83283603 44.57843909 -14.8125 41.4375 C-20.69112301 35.59989063 -22.40196967 30.35943374 -22.5625 22.0625 C-22.48332978 14.24354081 -20.7862919 9.05536848 -15.4609375 3.3515625 C-10.83041581 -0.62059118 -5.89198273 -1.05179196 0 0 Z " fill="#070707" transform="translate(339,245)"/>
<path d="M0 0 C0 0.99 0 1.98 0 3 C0.99 3 1.98 3 3 3 C2.67 5.31 2.34 7.62 2 10 C3.98 10.66 5.96 11.32 8 12 C7.67 13.32 7.34 14.64 7 16 C6.01 15.67 5.02 15.34 4 15 C4 15.66 4 16.32 4 17 C4.66 17.33 5.32 17.66 6 18 C6.33 18.33 6.66 18.66 7 19 C7.66 18.01 8.32 17.02 9 16 C8.505 18.475 8.505 18.475 8 21 C7.01 21 6.02 21 5 21 C4.67 22.32 4.34 23.64 4 25 C0.04 25.495 0.04 25.495 -4 26 C-3.525625 26.5775 -3.05125 27.155 -2.5625 27.75 C-1.0515133 29.92582084 -0.45963849 31.42602448 0 34 C2.475 33.505 2.475 33.505 5 33 C5.33 31.35 5.66 29.7 6 28 C6.33 28 6.66 28 7 28 C7.495 31.465 7.495 31.465 8 35 C5.525 35.495 5.525 35.495 3 36 C3.33 36.99 3.66 37.98 4 39 C6.01508358 39.73323796 6.01508358 39.73323796 8 40 C8 40.66 8 41.32 8 42 C7.01 42 6.02 42 5 42 C5 43.32 5 44.64 5 46 C6.98 45.505 6.98 45.505 9 45 C7.68 47.31 6.36 49.62 5 52 C4.34 52 3.68 52 3 52 C2.70996094 50.60974609 2.70996094 50.60974609 2.4140625 49.19140625 C2.15367187 47.99386719 1.89328125 46.79632813 1.625 45.5625 C1.36976563 44.36753906 1.11453125 43.17257813 0.8515625 41.94140625 C0.57054687 40.97074219 0.28953125 40.00007813 0 39 C-0.66 38.67 -1.32 38.34 -2 38 C-2.33 38.99 -2.66 39.98 -3 41 C-3.33 40.34 -3.66 39.68 -4 39 C-3.67 38.01 -3.34 37.02 -3 36 C-5.78750144 37.39375072 -5.89266287 39.16244861 -7 42 C-7.66 42.66 -8.32 43.32 -9 44 C-9 45.32 -9 46.64 -9 48 C-9.66 48 -10.32 48 -11 48 C-11 47.34 -11 46.68 -11 46 C-11.66 46 -12.32 46 -13 46 C-12.67 46.99 -12.34 47.98 -12 49 C-11.79040462 50.40585625 -11.61520745 51.81704993 -11.46484375 53.23046875 C-11.37783203 54.03291016 -11.29082031 54.83535156 -11.20117188 55.66210938 C-11.11416016 56.49548828 -11.02714844 57.32886719 -10.9375 58.1875 C-10.84662109 59.03248047 -10.75574219 59.87746094 -10.66210938 60.74804688 C-10.4384388 62.83171485 -10.21882849 64.91581795 -10 67 C-10.66 67 -11.32 67 -12 67 C-11.67 69.31 -11.34 71.62 -11 74 C-12.32 74 -13.64 74 -15 74 C-15.67189656 71.08444885 -16.33769308 68.16773049 -17 65.25 C-17.28617188 64.0125 -17.28617188 64.0125 -17.578125 62.75 C-17.75859375 61.95078125 -17.9390625 61.1515625 -18.125 60.328125 C-18.29257813 59.5949707 -18.46015625 58.86181641 -18.6328125 58.10644531 C-19 56 -19 56 -19 52 C-20.11375 51.814375 -20.11375 51.814375 -21.25 51.625 C-23.80141485 51.04513299 -25.7267573 50.26291261 -28 49 C-28 48.34 -28 47.68 -28 47 C-28.66 47 -29.32 47 -30 47 C-29.09145048 43.36580193 -28.54428265 41.43263493 -25.5625 39.0625 C-22.31555243 36.44910317 -21.52974158 33.82435395 -20 30 C-17.98060136 27.4757517 -17.15499404 27.05166468 -14 26 C-14.804375 25.608125 -15.60875 25.21625 -16.4375 24.8125 C-19 23 -19 23 -19.875 20.5 C-20 18 -20 18 -19 15 C-18.34 15 -17.68 15 -17 15 C-16.731875 14.38125 -16.46375 13.7625 -16.1875 13.125 C-15 11 -15 11 -12 9 C-11.67 7.845 -11.34 6.69 -11 5.5 C-9.22045065 -0.72842273 -5.77242405 -0.21782732 0 0 Z " fill="#171717" transform="translate(264,67)"/>
<path d="M0 0 C5.35617338 0.33189963 8.71047846 0.62966165 13 4 C15.35065178 3.71433121 15.35065178 3.71433121 18 3 C22.50106435 2.48768373 25.14248192 2.42832128 29 5 C29.66 5.66 30.32 6.32 31 7 C30.67 8.32 30.34 9.64 30 11 C26.62537285 10.45276317 24.91765 9.9451 22 8 C20.68 8 19.36 8 18 8 C19.048355 10.74185153 20.12757769 13.21590071 21.625 15.75 C23.83179043 20.96605011 23.98079693 25.32616076 22.015625 30.68359375 C21.14889481 32.65513741 20.26932812 34.62107369 19.37890625 36.58203125 C16.85442804 42.83959055 15.49173885 49.43301556 14 56 C13.34 56 12.68 56 12 56 C11.505 55.505 11.505 55.505 11 55 C11 55.99 11 56.98 11 58 C11.99 58 12.98 58 14 58 C13.3555021 60.7498577 12.53150017 63.34905653 11.5625 66 C9.67945736 71.55727219 8.85914548 77.21248361 8 83 C7.67005825 85.00056231 7.33765531 87.00072513 7 89 C4.525 89.495 4.525 89.495 2 90 C2.30731987 87.35346869 2.62059322 84.707885 2.9375 82.0625 C3.02451172 81.30775391 3.11152344 80.55300781 3.20117188 79.77539062 C3.88671875 74.11328125 3.88671875 74.11328125 5 73 C5.36760731 70.67182036 5.70241581 68.3381615 6 66 C7.485 65.505 7.485 65.505 9 65 C9 64.34 9 63.68 9 63 C8.34 63 7.68 63 7 63 C6.74977001 55.61821527 6.74977001 55.61821527 8.0625 52.375 C9.64399949 48.36853463 8.31715366 44.95146098 7 41 C6.70996094 41.83144531 6.70996094 41.83144531 6.4140625 42.6796875 C6.15367187 43.40414062 5.89328125 44.12859375 5.625 44.875 C5.36976563 45.59429687 5.11453125 46.31359375 4.8515625 47.0546875 C4 49 4 49 2 51 C1.01 51 0.02 51 -1 51 C-1.16767864 49.04175306 -1.33411205 47.08339945 -1.5 45.125 C-1.5928125 44.03445312 -1.685625 42.94390625 -1.78125 41.8203125 C-1.90562958 40.21670436 -2 38.60842449 -2 37 C-2.61210869 35.15513286 -3.26341924 33.32313657 -3.9375 31.5 C-4.29714844 30.5203125 -4.65679687 29.540625 -5.02734375 28.53125 C-5.9315579 26.05635668 -5.9315579 26.05635668 -7 24 C-6.01 24 -5.02 24 -4 24 C-3.34 25.65 -2.68 27.3 -2 29 C-1.34 28.34 -0.68 27.68 0 27 C2.29379749 30.44069624 3 31.72290301 3 36 C3.99 36 4.98 36 6 36 C9.16727335 30.8531808 9.35050464 26.841744 9 21 C8.34 21 7.68 21 7 21 C7.04125 22.0725 7.0825 23.145 7.125 24.25 C7.0114175 27.65747485 6.78726636 29.20739631 5 32 C3 31 3 31 1.87890625 28.8515625 C0.85724973 25.53685467 0.83804183 22.83614438 0.9375 19.375 C1.07716478 14.60167408 1.07716478 14.60167408 0 10 C-2.01508358 9.26676204 -2.01508358 9.26676204 -4 9 C-3.74438677 6.6568787 -3.40729228 4.32156597 -3 2 C-2.34 1.67 -1.68 1.34 -1 1 C-0.67 1.33 -0.34 1.66 0 2 C0 1.34 0 0.68 0 0 Z " fill="#050505" transform="translate(295,133)"/>
<path d="M0 0 C3.70818297 -0.08756305 7.41609763 -0.14058015 11.125 -0.1875 C12.17171875 -0.21263672 13.2184375 -0.23777344 14.296875 -0.26367188 C21.37180561 -0.33083894 26.04911231 0.20442219 31.375 5.25 C33.49870015 8.8439541 33.57821503 10.88021793 33 15 C31.1031387 18.9454715 29.59185958 20.65184731 25.8125 22.875 C21.25524253 24.2197645 17.73090902 24.21834965 13 24 C13 29.61 13 35.22 13 41 C14.65 41 16.3 41 18 41 C18 41.99 18 42.98 18 44 C12.06 44 6.12 44 0 44 C0 43.01 0 42.02 0 41 C1.32 41 2.64 41 4 41 C4 28.46 4 15.92 4 3 C2.68 3 1.36 3 0 3 C0 2.01 0 1.02 0 0 Z " fill="#070707" transform="translate(208,245)"/>
<path d="M0 0 C6.05686701 1.6250131 10.54189593 4.54189593 14.9375 8.9375 C16.40786768 11.79174315 16.41196299 13.84161705 16 17 C15.01 17.66 14.02 18.32 13 19 C12.63501966 21.89608399 12.63501966 21.89608399 12.8125 25.125 C12.83957031 26.22070312 12.86664063 27.31640625 12.89453125 28.4453125 C12.94673828 29.70988281 12.94673828 29.70988281 13 31 C9.37 31.33 5.74 31.66 2 32 C2 32.66 2 33.32 2 34 C-0.97 34.495 -0.97 34.495 -4 35 C-4 33.68 -4 32.36 -4 31 C-3.01 31 -2.02 31 -1 31 C-1 30.34 -1 29.68 -1 29 C-2.65 28.67 -4.3 28.34 -6 28 C-6 27.01 -6 26.02 -6 25 C-4.35 24.67 -2.7 24.34 -1 24 C-1.66 22.68 -2.32 21.36 -3 20 C-3.66 21.32 -4.32 22.64 -5 24 C-6.65 23.67 -8.3 23.34 -10 23 C-10.433125 21.576875 -10.433125 21.576875 -10.875 20.125 C-11.76825109 16.94788422 -11.76825109 16.94788422 -14 15 C-8.375 13 -8.375 13 -5 13 C-4.67 12.01 -4.34 11.02 -4 10 C-3.67 9.67 -3.34 9.34 -3 9 C-3.66 7.35 -4.32 5.7 -5 4 C-4.0409375 3.8453125 -4.0409375 3.8453125 -3.0625 3.6875 C-2.381875 3.460625 -1.70125 3.23375 -1 3 C-0.67 2.01 -0.34 1.02 0 0 Z " fill="#141414" transform="translate(273,78)"/>
<path d="M0 0 C5.94 0 11.88 0 18 0 C18 0.99 18 1.98 18 3 C16.35 3 14.7 3 13 3 C13 15.87 13 28.74 13 42 C23.40606822 41.35952507 23.40606822 41.35952507 26.125 37.3125 C27.03374894 33.87223617 27.64596812 30.54031878 28 27 C28.99 27 29.98 27 31 27 C31 32.61 31 38.22 31 44 C20.77 44 10.54 44 0 44 C0 43.01 0 42.02 0 41 C1.32 41 2.64 41 4 41 C4 28.46 4 15.92 4 3 C2.68 3 1.36 3 0 3 C0 2.01 0 1.02 0 0 Z " fill="#080808" transform="translate(282,245)"/>
<path d="M0 0 C0.66 0 1.32 0 2 0 C2.02715383 1.74991334 2.04646551 3.49994945 2.0625 5.25 C2.07410156 6.22453125 2.08570313 7.1990625 2.09765625 8.203125 C2 11 2 11 1.37109375 13.234375 C1.24863281 13.81703125 1.12617188 14.3996875 1 15 C1.66 15.66 2.32 16.32 3 17 C3.66 16.34 4.32 15.68 5 15 C6.8441177 21.9648374 8.67735744 29.16604013 5.6875 36 C4 38 4 38 1 39 C0.34 35.04 -0.32 31.08 -1 27 C-1 28.0725 -1 29.145 -1 30.25 C-1 32.83333333 -1 35.41666667 -1 38 C-0.195625 38.474375 0.60875 38.94875 1.4375 39.4375 C4 41 4 41 4.8125 43.6875 C4.874375 44.450625 4.93625 45.21375 5 46 C4.37480469 46.07347656 3.74960937 46.14695313 3.10546875 46.22265625 C0.81922278 46.79552601 0.81922278 46.79552601 -0.01171875 48.99609375 C-0.23472656 49.80175781 -0.45773437 50.60742188 -0.6875 51.4375 C-1.99622642 55.99245283 -1.99622642 55.99245283 -3 58 C-3 59.32 -3 60.64 -3 62 C-7.07142857 65 -7.07142857 65 -10 65 C-9.5020163 61.26512223 -9.12508244 59.18762365 -7 56 C-6.2986716 53.67684969 -5.63514826 51.34210921 -5 49 C-4.319375 47.453125 -4.319375 47.453125 -3.625 45.875 C-3.41875 44.92625 -3.2125 43.9775 -3 43 C-4.7110076 40.360962 -4.7110076 40.360962 -7 38 C-8.72929769 34.54140463 -9.39600386 31.86103768 -9 28 C-8.67338379 27.37899414 -8.34676758 26.75798828 -8.01025391 26.11816406 C-6.91070833 23.81278527 -6.69468419 22.20929771 -6.5859375 19.671875 C-6.54726563 18.87265625 -6.50859375 18.0734375 -6.46875 17.25 C-6.4378125 16.425 -6.406875 15.6 -6.375 14.75 C-6.33632813 13.90953125 -6.29765625 13.0690625 -6.2578125 12.203125 C-6.16384164 10.13576618 -6.08084436 8.06791373 -6 6 C-6.66 7.32 -7.32 8.64 -8 10 C-8.66 10 -9.32 10 -10 10 C-9.67 7.69 -9.34 5.38 -9 3 C-4.545 2.505 -4.545 2.505 0 2 C0 1.34 0 0.68 0 0 Z " fill="#090909" transform="translate(282,166)"/>
<path d="M0 0 C2.875 0.875 2.875 0.875 4.875 2.875 C5.08684648 5.4207356 5.17898808 7.85500638 5.17578125 10.40234375 C5.18006638 11.14706436 5.1843515 11.89178497 5.18876648 12.65907288 C5.19451282 14.23518863 5.1950078 15.8113309 5.19067383 17.38745117 C5.18751665 19.79977692 5.21095756 22.21087312 5.23632812 24.62304688 C5.23860137 26.15364428 5.23930449 27.684245 5.23828125 29.21484375 C5.247491 29.93679428 5.25670074 30.65874481 5.26618958 31.40257263 C5.23925612 34.31706836 5.19550937 36.3852376 3.57495117 38.86157227 C1.875 39.875 1.875 39.875 -1.6875 39.75 C-5.125 38.875 -5.125 38.875 -7.125 35.875 C-7.53629973 31.32408945 -7.49660322 26.76375177 -7.49560547 22.1965332 C-7.49997839 19.9486107 -7.53630369 17.70265321 -7.57421875 15.45507812 C-7.58008737 14.0234442 -7.58405646 12.59180097 -7.5859375 11.16015625 C-7.59415527 9.85957275 -7.60237305 8.55898926 -7.61083984 7.21899414 C-7.125 3.875 -7.125 3.875 -5.29150391 1.41186523 C-3.125 -0.125 -3.125 -0.125 0 0 Z " fill="#F6F6F6" transform="translate(335.125,247.125)"/>
<path d="M0 0 C3.30129013 4.9519352 2.37187267 10.87783382 2.37060547 16.6784668 C2.37497839 18.9263893 2.41130369 21.17234679 2.44921875 23.41992188 C2.45508737 24.8515558 2.45905646 26.28319903 2.4609375 27.71484375 C2.46915527 29.01542725 2.47737305 30.31601074 2.48583984 31.65600586 C2 35 2 35 0.13134766 37.42797852 C-2 39 -2 39 -4.5625 39.4375 C-7.56014195 38.8994617 -8.24922223 38.4823672 -10 36 C-10.31030476 33.37806544 -10.44430571 30.99790508 -10.43359375 28.375 C-10.4388356 27.63169434 -10.44407745 26.88838867 -10.44947815 26.12255859 C-10.45589608 24.55242155 -10.45456424 22.98223642 -10.44604492 21.41210938 C-10.43752921 19.00824564 -10.46630361 16.6067542 -10.49804688 14.203125 C-10.49965886 12.67708405 -10.4990814 11.15103888 -10.49609375 9.625 C-10.50732773 8.90618652 -10.51856171 8.18737305 -10.53013611 7.44677734 C-10.48468767 4.19693346 -10.41584383 2.44952502 -8.16430664 0.015625 C-5.0827669 -1.43042185 -3.20652899 -0.97590013 0 0 Z " fill="#F6F6F6" transform="translate(265,248)"/>
<path d="M0 0 C3 1 3 1 4 3 C4.99 3.33 5.98 3.66 7 4 C7.33 4.99 7.66 5.98 8 7 C8.495 7.94875 8.99 8.8975 9.5 9.875 C10.84501879 12.67712247 11.55133177 14.94905604 12 18 C10.35 18 8.7 18 7 18 C6.67 19.65 6.34 21.3 6 23 C6.66 23 7.32 23 8 23 C6.94438088 25.55107955 6.37539644 26.78386266 3.9375 28.1875 C1.18822864 30.75939901 1.4339487 33.09755063 1.2734375 36.74609375 C1 39 1 39 -0.0703125 41.00390625 C-1.26041463 43.55912553 -0.93468108 44.79828546 -0.25 47.5 C-0.06953125 48.2528125 0.1109375 49.005625 0.296875 49.78125 C1.01191532 52.03759944 1.75883657 53.98199328 3 56 C5.55519921 56.81171228 5.55519921 56.81171228 8 57 C8 57.66 8 58.32 8 59 C8.66 59 9.32 59 10 59 C10 60.98 10 62.96 10 65 C8.35 64.67 6.7 64.34 5 64 C5 63.34 5 62.68 5 62 C4.0409375 61.8453125 4.0409375 61.8453125 3.0625 61.6875 C2.0415625 61.3471875 2.0415625 61.3471875 1 61 C0.505 59.515 0.505 59.515 0 58 C-2.01508358 57.26676204 -2.01508358 57.26676204 -4 57 C-4.34058393 54.52164369 -4.67256479 52.0426005 -5 49.5625 C-5.09539062 48.87478516 -5.19078125 48.18707031 -5.2890625 47.47851562 C-6.56837718 37.65520648 -5.8816905 30.31875338 -2.5 20.9375 C-2.16613281 19.97650391 -1.83226562 19.01550781 -1.48828125 18.02539062 C-0.67111798 15.67896466 0.15839818 13.3377473 1 11 C1.66 11 2.32 11 3 11 C2.505 10.113125 2.01 9.22625 1.5 8.3125 C0.05621326 5.12413762 -0.30159922 3.41812454 0 0 Z " fill="#0D0D0D" transform="translate(251,157)"/>
<path d="M0 0 C3.70818297 -0.08756305 7.41609763 -0.14058015 11.125 -0.1875 C12.17171875 -0.21263672 13.2184375 -0.23777344 14.296875 -0.26367188 C21.37180561 -0.33083894 26.04911231 0.20442219 31.375 5.25 C33.49870015 8.8439541 33.57821503 10.88021793 33 15 C31.1031387 18.9454715 29.59185958 20.65184731 25.8125 22.875 C21.37811798 24.18350617 17.57840459 24.28031048 13 24 C13 16.66666667 13 9.33333333 13 2 C8.71 1.67 4.42 1.34 0 1 C0 0.67 0 0.34 0 0 Z " fill="#101010" transform="translate(208,245)"/>
<path d="M0 0 C4.79564903 0.11722698 8.17519359 0.48644129 12.3125 3.0625 C18.7173875 10.06319099 19.6669882 15.84339524 19.3828125 25.36328125 C18.69901207 31.85938529 16.85476303 36.67932325 11.875 41 C7.5482221 44.00993245 5.27447391 44.09767544 0 44 C0.598125 43.566875 1.19625 43.13375 1.8125 42.6875 C2.534375 42.130625 3.25625 41.57375 4 41 C4.53189941 40.6184375 5.06379883 40.236875 5.61181641 39.84375 C7.78026267 36.96367505 7.38922685 34.36693337 7.3984375 30.8125 C7.40130768 30.11358643 7.40417786 29.41467285 7.40713501 28.69458008 C7.40917425 27.21857899 7.40365403 25.74255079 7.39111328 24.26660156 C7.3750558 22.00784862 7.3909647 19.75088482 7.41015625 17.4921875 C7.40817379 16.05728772 7.40433006 14.62238905 7.3984375 13.1875 C7.39505371 11.88167969 7.39166992 10.57585937 7.38818359 9.23046875 C7.26795228 6.05459156 7.26795228 6.05459156 5.64306641 4.09375 C3.49912051 2.66657651 1.53020355 2.3419194 -1 2 C-0.67 1.34 -0.34 0.68 0 0 Z " fill="#050505" transform="translate(259,245)"/>
<path d="M0 0 C2.375 -0.125 2.375 -0.125 5 0 C5.66 0.66 6.32 1.32 7 2 C7.66 1.67 8.32 1.34 9 1 C8.86722656 1.59167969 8.73445313 2.18335938 8.59765625 2.79296875 C7.68994822 6.85446525 6.7908887 10.91374171 6 15 C5.34 15 4.68 15 4 15 C3.67 14.67 3.34 14.34 3 14 C3 14.99 3 15.98 3 17 C3.99 17 4.98 17 6 17 C5.3555021 19.7498577 4.53150017 22.34905653 3.5625 25 C1.67945736 30.55727219 0.85914548 36.21248361 0 42 C-0.32994175 44.00056231 -0.66234469 46.00072513 -1 48 C-3.475 48.495 -3.475 48.495 -6 49 C-5.69268013 46.35346869 -5.37940678 43.707885 -5.0625 41.0625 C-4.97548828 40.30775391 -4.88847656 39.55300781 -4.79882812 38.77539062 C-4.11328125 33.11328125 -4.11328125 33.11328125 -3 32 C-2.63239269 29.67182036 -2.29758419 27.3381615 -2 25 C-1.01 24.67 -0.02 24.34 1 24 C1 23.34 1 22.68 1 22 C0.34 22 -0.32 22 -1 22 C-1.25161887 14.57724329 -1.25161887 14.57724329 0.0625 11.5625 C1.49152081 7.65650979 0.65120643 4.03923989 0 0 Z " fill="#141414" transform="translate(303,174)"/>
<path d="M0 0 C3.48127974 3.48127974 3 8.27495154 3 13 C3.804375 13.474375 4.60875 13.94875 5.4375 14.4375 C8 16 8 16 8.8125 18.6875 C8.874375 19.450625 8.93625 20.21375 9 21 C8.37480469 21.07347656 7.74960937 21.14695313 7.10546875 21.22265625 C4.81922278 21.79552601 4.81922278 21.79552601 3.98828125 23.99609375 C3.76527344 24.80175781 3.54226563 25.60742188 3.3125 26.4375 C2.00377358 30.99245283 2.00377358 30.99245283 1 33 C1 34.32 1 35.64 1 37 C-3.07142857 40 -3.07142857 40 -6 40 C-5.5020163 36.26512223 -5.12508244 34.18762365 -3 31 C-2.2986716 28.67684969 -1.63514826 26.34210921 -1 24 C-0.319375 22.453125 -0.319375 22.453125 0.375 20.875 C0.58125 19.92625 0.7875 18.9775 1 18 C-0.7110076 15.360962 -0.7110076 15.360962 -3 13 C-4.74140134 9.51719733 -5.22181777 6.88181103 -5 3 C-4.360625 2.87625 -3.72125 2.7525 -3.0625 2.625 C-2.0415625 2.315625 -2.0415625 2.315625 -1 2 C-0.67 1.34 -0.34 0.68 0 0 Z " fill="#181818" transform="translate(278,191)"/>
<path d="M0 0 C0.66 0.33 1.32 0.66 2 1 C2 2.65 2 4.3 2 6 C2.66 6.33 3.32 6.66 4 7 C5.67463519 9.76469237 6.31320033 12.1320033 6.6328125 15.328125 C6.71660156 16.12734375 6.80039063 16.9265625 6.88671875 17.75 C6.96535156 18.575 7.04398438 19.4 7.125 20.25 C7.21136719 21.09046875 7.29773438 21.9309375 7.38671875 22.796875 C7.59811722 24.86388223 7.79999462 26.93185928 8 29 C7.34 29 6.68 29 6 29 C6.33 31.31 6.66 33.62 7 36 C5.68 36 4.36 36 3 36 C2.32810344 33.08444885 1.66230692 30.16773049 1 27.25 C0.80921875 26.425 0.6184375 25.6 0.421875 24.75 C0.15117187 23.55117187 0.15117187 23.55117187 -0.125 22.328125 C-0.29257813 21.5949707 -0.46015625 20.86181641 -0.6328125 20.10644531 C-1 18 -1 18 -1 14 C-2.65 13.67 -4.3 13.34 -6 13 C-5.67 11.68 -5.34 10.36 -5 9 C-5 9.66 -5 10.32 -5 11 C-4.01 10.34 -3.02 9.68 -2 9 C-1.63702064 7.02252878 -1.63702064 7.02252878 -1.8125 4.875 C-1.874375 3.59625 -1.93625 2.3175 -2 1 C-1.34 0.67 -0.68 0.34 0 0 Z " fill="#292929" transform="translate(246,105)"/>
<path d="M0 0 C0.66 0.99 1.32 1.98 2 3 C2.66 3.33 3.32 3.66 4 4 C4 6.31 4 8.62 4 11 C2 8 2 8 1 6 C0.67 8.31 0.34 10.62 0 13 C0.99 13.33 1.98 13.66 3 14 C3 14.66 3 15.32 3 16 C3.66 16.33 4.32 16.66 5 17 C4.97679687 17.88042969 4.95359375 18.76085937 4.9296875 19.66796875 C4.91164063 20.82941406 4.89359375 21.99085938 4.875 23.1875 C4.84019531 24.91033203 4.84019531 24.91033203 4.8046875 26.66796875 C4.99515848 29.91740372 5.60639873 32.08660521 7 35 C9.31779699 32.12422973 9.31779699 32.12422973 9 28.5625 C9 25.20245577 9.23448439 23.75861813 11 21 C13.45254338 25.35571704 13.68906893 29.08838077 13 34 C11.90147197 36.88960633 10.56365469 39.31246849 9 42 C8.67 41.34 8.34 40.68 8 40 C7.34 40 6.68 40 6 40 C5.01 37.36 4.02 34.72 3 32 C2.34 32.66 1.68 33.32 1 34 C0.34 32.02 -0.32 30.04 -1 28 C-1.99 28 -2.98 28 -4 28 C-4 28.66 -4 29.32 -4 30 C-4.66 30 -5.32 30 -6 30 C-6.33 29.01 -6.66 28.02 -7 27 C-4.60236815 24.60236815 -3.66726502 24.65719414 -0.375 24.375 C0.44226563 24.30023438 1.25953125 24.22546875 2.1015625 24.1484375 C2.72804688 24.09945312 3.35453125 24.05046875 4 24 C3.67 22.02 3.34 20.04 3 18 C2.34 18 1.68 18 1 18 C0.34 17.01 -0.32 16.02 -1 15 C-1.33 17.31 -1.66 19.62 -2 22 C-2.33 22 -2.66 22 -3 22 C-3 20.35 -3 18.7 -3 17 C-3.66 16.67 -4.32 16.34 -5 16 C-4.54625 14.845 -4.0925 13.69 -3.625 12.5 C-2.07544024 8.38742433 -0.99327517 4.27872379 0 0 Z " fill="#6A6A6A" transform="translate(292,129)"/>
<path d="M0 0 C1.32 0 2.64 0 4 0 C5.49594333 4.67482292 5.54799337 9.35601989 4 14 C4.23819079 16.16750823 4.23819079 16.16750823 4.8125 18.4375 C4.98394531 19.19933594 5.15539062 19.96117187 5.33203125 20.74609375 C6.01169114 23.03944907 6.74066893 24.96430713 8 27 C10.55519921 27.81171228 10.55519921 27.81171228 13 28 C13 28.66 13 29.32 13 30 C13.66 30 14.32 30 15 30 C15 31.98 15 33.96 15 36 C13.35 35.67 11.7 35.34 10 35 C10 34.34 10 33.68 10 33 C9.0409375 32.8453125 9.0409375 32.8453125 8.0625 32.6875 C7.0415625 32.3471875 7.0415625 32.3471875 6 32 C5.67 31.01 5.34 30.02 5 29 C2.98491642 28.26676204 2.98491642 28.26676204 1 28 C-2.01650738 6.04952215 -2.01650738 6.04952215 0 0 Z " fill="#171717" transform="translate(246,186)"/>
<path d="M0 0 C0.99 0 1.98 0 3 0 C8.55580866 10.37357631 8.55580866 10.37357631 9 16 C7.125 15.6875 7.125 15.6875 5 15 C4.34 14.01 3.68 13.02 3 12 C2.55422607 12.32572998 2.10845215 12.65145996 1.64916992 12.98706055 C-7.31234678 19.52432677 -16.32097518 25.99277995 -25.4375 32.3125 C-26.24743408 32.88121826 -27.05736816 33.44993652 -27.8918457 34.03588867 C-28.64812256 34.55642822 -29.40439941 35.07696777 -30.18359375 35.61328125 C-30.84931396 36.07516846 -31.51503418 36.53705566 -32.20092773 37.01293945 C-34 38 -34 38 -37 38 C-35.55467348 34.41386245 -33.86170475 32.93309239 -30.6328125 30.86328125 C-29.75222168 30.2899707 -28.87163086 29.71666016 -27.96435547 29.12597656 C-27.02736816 28.5275293 -26.09038086 27.92908203 -25.125 27.3125 C-17.95349855 22.64194852 -10.95916258 17.89894854 -4.1796875 12.671875 C-2.50040033 11.38381961 -0.76094006 10.17396004 1 9 C0.505 4.545 0.505 4.545 0 0 Z " fill="#191919" transform="translate(303,31)"/>
<path d="M0 0 C6 0 6 0 8.375 2.0625 C10.425667 5.76947496 10.58763397 7.81310797 10 12 C8.375 15.4375 8.375 15.4375 6 18 C4.02 18 2.04 18 0 18 C0 12.06 0 6.12 0 0 Z " fill="#F9F9F9" transform="translate(221,248)"/>
<path d="M0 0 C0.99 0 1.98 0 3 0 C3.66 1.65 4.32 3.3 5 5 C5.66 4.34 6.32 3.68 7 3 C9.29379749 6.44069624 10 7.72290301 10 12 C10.66 12 11.32 12 12 12 C13.5547669 15.10953379 13.28644437 17.56266761 13 21 C11.1875 24.4375 11.1875 24.4375 9 27 C8.01 27 7.02 27 6 27 C5.83232136 25.04175306 5.66588795 23.08339945 5.5 21.125 C5.4071875 20.03445312 5.314375 18.94390625 5.21875 17.8203125 C5.09437042 16.21670436 5 14.60842449 5 13 C4.38789131 11.15513286 3.73658076 9.32313657 3.0625 7.5 C2.70285156 6.5203125 2.34320313 5.540625 1.97265625 4.53125 C1.0684421 2.05635668 1.0684421 2.05635668 0 0 Z " fill="#282828" transform="translate(288,157)"/>
<path d="M0 0 C2.625 0.1875 2.625 0.1875 5.625 2.1875 C5.625 2.8475 5.625 3.5075 5.625 4.1875 C6.945 4.1875 8.265 4.1875 9.625 4.1875 C9.625 5.8375 9.625 7.4875 9.625 9.1875 C10.285 9.5175 10.945 9.8475 11.625 10.1875 C11.955 9.5275 12.285 8.8675 12.625 8.1875 C12.955 8.5175 13.285 8.8475 13.625 9.1875 C13.955 8.5275 14.285 7.8675 14.625 7.1875 C15.615 6.8575 16.605 6.5275 17.625 6.1875 C18.285 5.1975 18.945 4.2075 19.625 3.1875 C19.295 4.8375 18.965 6.4875 18.625 8.1875 C17.635 8.1875 16.645 8.1875 15.625 8.1875 C15.295 9.5075 14.965 10.8275 14.625 12.1875 C13.3875 12.331875 12.15 12.47625 10.875 12.625 C8.05995501 12.97438502 5.3548503 13.39129366 2.625 14.1875 C3.285 12.2075 3.945 10.2275 4.625 8.1875 C2.15 9.6725 2.15 9.6725 -0.375 11.1875 C-2.4375 9 -2.4375 9 -4.375 6.1875 C-3.97451894 0.31377781 -3.97451894 0.31377781 0 0 Z " fill="#F1F1F1" transform="translate(253.375,79.8125)"/>
<path d="M0 0 C0.66 0 1.32 0 2 0 C2.66 1.65 3.32 3.3 4 5 C4.5878125 3.7625 4.5878125 3.7625 5.1875 2.5 C5.785625 1.675 6.38375 0.85 7 0 C8.65 0 10.3 0 12 0 C11.67 3.3 11.34 6.6 11 10 C11.99 10 12.98 10 14 10 C14.33 9.01 14.66 8.02 15 7 C15.33 8.32 15.66 9.64 16 11 C8.25 11.125 8.25 11.125 6 10 C3.90178785 10.39938767 3.90178785 10.39938767 2 11 C2 9.68 2 8.36 2 7 C1.01 7 0.02 7 -1 7 C-1 8.32 -1 9.64 -1 11 C-1.99 10.67 -2.98 10.34 -4 10 C-2.68 6.7 -1.36 3.4 0 0 Z " fill="#909090" transform="translate(232,302)"/>
<path d="M0 0 C0.66 0 1.32 0 2 0 C2.33 1.32 2.66 2.64 3 4 C2.01 4.495 2.01 4.495 1 5 C1.144375 5.64066406 1.28875 6.28132812 1.4375 6.94140625 C2.54035491 12.08040377 3.22839311 16.74695843 3 22 C-0.26954202 21.43628586 -1.82575883 20.50037734 -4 18 C-4.33 18.66 -4.66 19.32 -5 20 C-4.58137548 4.72020504 -4.58137548 4.72020504 0 0 Z " fill="#0E0E0E" transform="translate(255,139)"/>
<path d="M0 0 C0.66 0.33 1.32 0.66 2 1 C1.7525 2.0725 1.505 3.145 1.25 4.25 C0.57571378 8.02745496 0.57571378 8.02745496 2.9375 10.4375 C3.618125 10.953125 4.29875 11.46875 5 12 C6.32 11.34 7.64 10.68 9 10 C8.49396008 12.16874252 8.00016187 13.99967627 7 16 C7.99 16.33 8.98 16.66 10 17 C9.34 17 8.68 17 8 17 C7.67 17.66 7.34 18.32 7 19 C6.34 19 5.68 19 5 19 C5 18.34 5 17.68 5 17 C4.01 17 3.02 17 2 17 C2 16.01 2 15.02 2 14 C1.21625 13.87625 0.4325 13.7525 -0.375 13.625 C-3 13 -3 13 -5 11 C-4.625 7.375 -4.625 7.375 -4 4 C-3.34 4 -2.68 4 -2 4 C-1.34 2.68 -0.68 1.36 0 0 Z " fill="#1D1D1D" transform="translate(249,78)"/>
<path d="M0 0 C0 0.99 0 1.98 0 3 C0.99 3 1.98 3 3 3 C3 3.66 3 4.32 3 5 C0.69 5.66 -1.62 6.32 -4 7 C-4 8.32 -4 9.64 -4 11 C-4.66 11 -5.32 11 -6 11 C-6 10.34 -6 9.68 -6 9 C-6.66 9 -7.32 9 -8 9 C-8 9.66 -8 10.32 -8 11 C-9.65 11 -11.3 11 -13 11 C-12.57576756 9.53775201 -12.13509755 8.08026588 -11.6875 6.625 C-11.44386719 5.81289062 -11.20023438 5.00078125 -10.94921875 4.1640625 C-8.74172833 -0.86865228 -4.79365211 -0.18089253 0 0 Z " fill="#191919" transform="translate(264,67)"/>
<path d="M0 0 C1.8125 0.8125 1.8125 0.8125 2.8125 2.8125 C2.852492 4.81210012 2.85596799 6.81297242 2.8125 8.8125 C0.17345629 10.22627341 -2.25870629 11.18490135 -5.1875 11.8125 C-5.5175 10.8225 -5.8475 9.8325 -6.1875 8.8125 C-6.8475 8.8125 -7.5075 8.8125 -8.1875 8.8125 C-7.32290574 5.57027151 -6.67028055 3.31137323 -4.3125 0.875 C-2.1875 -0.1875 -2.1875 -0.1875 0 0 Z " fill="#090909" transform="translate(242.1875,105.1875)"/>
<path d="M0 0 C0.99 0 1.98 0 3 0 C4.0891728 2.1783456 4.28032356 3.7203964 4.53515625 6.1328125 C4.62216797 6.93847656 4.70917969 7.74414062 4.79882812 8.57421875 C4.88583984 9.41597656 4.97285156 10.25773437 5.0625 11.125 C5.15337891 11.97449219 5.24425781 12.82398437 5.33789062 13.69921875 C5.5620368 15.7991145 5.78146448 17.89951293 6 20 C5.34 20 4.68 20 4 20 C3.67 20.99 3.34 21.98 3 23 C2.32210976 20.64856824 1.65759253 18.29461376 1 15.9375 C0.71382812 14.95233398 0.71382812 14.95233398 0.421875 13.94726562 C-0.79344455 9.54173225 -1.28206466 5.61293253 -1 1 C-0.67 0.67 -0.34 0.34 0 0 Z " fill="#F2F2F2" transform="translate(248,114)"/>
<path d="M0 0 C0.33 0 0.66 0 1 0 C1.33 2.31 1.66 4.62 2 7 C0.35 7.33 -1.3 7.66 -3 8 C-2.67 8.99 -2.34 9.98 -2 11 C0.01508358 11.73323796 0.01508358 11.73323796 2 12 C2 12.66 2 13.32 2 14 C1.01 14 0.02 14 -1 14 C-1 15.32 -1 16.64 -1 18 C0.32 17.67 1.64 17.34 3 17 C1.68 19.31 0.36 21.62 -1 24 C-1.66 24 -2.32 24 -3 24 C-3.20496094 23.10796875 -3.40992188 22.2159375 -3.62109375 21.296875 C-4.02521484 19.54117188 -4.02521484 19.54117188 -4.4375 17.75 C-4.70433594 16.58984375 -4.97117187 15.4296875 -5.24609375 14.234375 C-5.80968 11.81650239 -6.38669951 9.40556696 -7 7 C-5.02 6.34 -3.04 5.68 -1 5 C-0.67 3.35 -0.34 1.7 0 0 Z " fill="#CFCFCF" transform="translate(270,95)"/>
<path d="M0 0 C0.66 0.99 1.32 1.98 2 3 C2.66 3.33 3.32 3.66 4 4 C4 6.31 4 8.62 4 11 C2 8 2 8 1 6 C0.67 8.31 0.34 10.62 0 13 C0.99 13.33 1.98 13.66 3 14 C3 14.66 3 15.32 3 16 C3.66 16.33 4.32 16.66 5 17 C5 19.64 5 22.28 5 25 C4.01 25.33 3.02 25.66 2 26 C1.34 25.34 0.68 24.68 0 24 C1.32 24 2.64 24 4 24 C3.67 22.02 3.34 20.04 3 18 C2.34 18 1.68 18 1 18 C0.34 17.01 -0.32 16.02 -1 15 C-1.33 17.31 -1.66 19.62 -2 22 C-2.33 22 -2.66 22 -3 22 C-3 20.35 -3 18.7 -3 17 C-3.66 16.67 -4.32 16.34 -5 16 C-4.319375 14.2675 -4.319375 14.2675 -3.625 12.5 C-2.07544024 8.38742433 -0.99327517 4.27872379 0 0 Z " fill="#ABABAB" transform="translate(292,129)"/>
<path d="M0 0 C3 2 3 2 5 4 C4.67 5.32 4.34 6.64 4 8 C0.62537285 7.45276317 -1.08235 6.9451 -4 5 C-7.14221967 5.31506627 -7.14221967 5.31506627 -10 6 C-10 5.01 -10 4.02 -10 3 C-10.99 2.67 -11.98 2.34 -13 2 C-8.73602127 -0.13198937 -4.69052342 -0.81327624 0 0 Z " fill="#1A1A1A" transform="translate(321,136)"/>
<path d="M0 0 C1.98 0 3.96 0 6 0 C6.74010154 3.42296964 7 6.50130105 7 10 C7.66 10.33 8.32 10.66 9 11 C7.68 11 6.36 11 5 11 C4.67 10.34 4.34 9.68 4 9 C3.67 9.66 3.34 10.32 3 11 C2.01 11 1.02 11 0 11 C0 7.37 0 3.74 0 0 Z " fill="#2F2F2F" transform="translate(217,302)"/>
<path d="M0 0 C0 0.99 0 1.98 0 3 C1.32 3.99 2.64 4.98 4 6 C-1.445 6.495 -1.445 6.495 -7 7 C-7 7.66 -7 8.32 -7 9 C-8.98 9.33 -10.96 9.66 -13 10 C-13 8.68 -13 7.36 -13 6 C-11.68 6 -10.36 6 -9 6 C-8.67 4.68 -8.34 3.36 -8 2 C-5.36 1.34 -2.72 0.68 0 0 Z " fill="#2A2A2A" transform="translate(282,103)"/>
<path d="M0 0 C2.31 0 4.62 0 7 0 C8.125 4.75 8.125 4.75 7 7 C7.89163577 9.11683841 7.89163577 9.11683841 9 11 C8.360625 10.835 7.72125 10.67 7.0625 10.5 C3.80381597 9.71001599 3.82351056 10.04412236 0 11 C0 7.37 0 3.74 0 0 Z " fill="#171717" transform="translate(312,302)"/>
<path d="M0 0 C2.25 0.125 2.25 0.125 5 1 C7.3125 4.0625 7.3125 4.0625 9 7 C8.67 7.66 8.34 8.32 8 9 C7.67 8.01 7.34 7.02 7 6 C6.34 6 5.68 6 5 6 C4.896875 6.598125 4.79375 7.19625 4.6875 7.8125 C3.91123545 10.28243264 2.92911079 11.32251235 1 13 C1 12.01 1 11.02 1 10 C0.34 10 -0.32 10 -1 10 C-1.125 2.25 -1.125 2.25 0 0 Z " fill="#4D4D4D" transform="translate(271,129)"/>
<path d="M0 0 C1.32 0 2.64 0 4 0 C5.32630565 4.14470514 5.98384711 9.03230578 4 13 C2.35 12.67 0.7 12.34 -1 12 C-1.02712066 10.56260487 -1.04645067 9.12506137 -1.0625 7.6875 C-1.07410156 6.88699219 -1.08570313 6.08648437 -1.09765625 5.26171875 C-1 3 -1 3 0 0 Z " fill="#232323" transform="translate(246,186)"/>
<path d="M0 0 C0.33 0 0.66 0 1 0 C1.01981934 0.95890137 1.03963867 1.91780273 1.06005859 2.90576172 C1.13604145 6.45811553 1.2247693 10.01005576 1.31738281 13.56201172 C1.35570301 15.10034021 1.39055056 16.63875925 1.421875 18.17724609 C1.46746059 20.38672276 1.5254634 22.59557448 1.5859375 24.8046875 C1.59748871 25.49432587 1.60903992 26.18396423 1.62094116 26.89450073 C1.64951022 30.8920154 1.64951022 30.8920154 4 34 C4.66 34.33 5.32 34.66 6 35 C8 36 8 36 10 38 C4.97745369 38.2954439 2.10457614 37.98514628 -2 35 C-1.67 34.34 -1.34 33.68 -1 33 C-0.84373424 30.52167341 -0.74186802 28.06688669 -0.68359375 25.5859375 C-0.66281265 24.85629791 -0.64203156 24.12665833 -0.62062073 23.37490845 C-0.55518083 21.04170237 -0.49626632 18.70838279 -0.4375 16.375 C-0.39430947 14.79425905 -0.35069501 13.21352961 -0.30664062 11.6328125 C-0.19950519 7.75532496 -0.09822218 3.87772315 0 0 Z " fill="#2F2F2F" transform="translate(254,252)"/>
<path d="M0 0 C2.51239382 3.76859072 3.12663199 6.26239249 3.0625 10.6875 C3.05347656 11.49574219 3.04445313 12.30398437 3.03515625 13.13671875 C3.02355469 13.75160156 3.01195312 14.36648437 3 15 C4.32 14.34 5.64 13.68 7 13 C7.99 13.99 8.98 14.98 10 16 C9.01 18.475 9.01 18.475 8 21 C7.7525 20.360625 7.505 19.72125 7.25 19.0625 C6.20668205 16.83323057 6.20668205 16.83323057 4.0625 16.375 C3.381875 16.25125 2.70125 16.1275 2 16 C1.01 15.34 0.02 14.68 -1 14 C-0.34 14 0.32 14 1 14 C1 13.34 1 12.68 1 12 C0.34 11.67 -0.32 11.34 -1 11 C-0.835 10.484375 -0.67 9.96875 -0.5 9.4375 C0.15049 6.26636124 0.0620734 3.22781666 0 0 Z " fill="#585858" transform="translate(280,190)"/>
<path d="M0 0 C0.66 0 1.32 0 2 0 C2.33 1.65 2.66 3.3 3 5 C2.38125 5.061875 1.7625 5.12375 1.125 5.1875 C0.42375 5.455625 -0.2775 5.72375 -1 6 C-1.33 6.825 -1.66 7.65 -2 8.5 C-2.495 9.7375 -2.495 9.7375 -3 11 C-5.125 11.8125 -5.125 11.8125 -7 12 C-7 7.66905042 -6.03435531 5.72965139 -4 2 C-3.67 2.66 -3.34 3.32 -3 4 C-2.34 3.67 -1.68 3.34 -1 3 C-0.67 2.01 -0.34 1.02 0 0 Z " fill="#151515" transform="translate(284,207)"/>
<path d="M0 0 C2.72302618 2.60956676 3.26435984 4.73002128 3.375 8.375 C3.25151844 12.52535244 2.19672245 15.43032602 0 19 C-0.99 18.67 -1.98 18.34 -3 18 C-2.855625 17.484375 -2.71125 16.96875 -2.5625 16.4375 C-1.84115736 13.31168188 -1.4309988 10.17861616 -1 7 C-0.66666667 4.66666667 -0.33333333 2.33333333 0 0 Z " fill="#464646" transform="translate(302,150)"/>
<path d="M0 0 C1.98 0.495 1.98 0.495 4 1 C4.33 1.66 4.66 2.32 5 3 C5.33 2.01 5.66 1.02 6 0 C6.66 0 7.32 0 8 0 C8 3.63 8 7.26 8 11 C7.34 11 6.68 11 6 11 C4.02 7.535 4.02 7.535 2 4 C2 6.31 2 8.62 2 11 C1.01 10.67 0.02 10.34 -1 10 C-0.67 6.7 -0.34 3.4 0 0 Z " fill="#3B3B3B" transform="translate(335,302)"/>
<path d="M0 0 C0.99 0 1.98 0 3 0 C3.66 1.65 4.32 3.3 5 5 C5.66 4.34 6.32 3.68 7 3 C10.07692308 7.30769231 10.07692308 7.30769231 9.6875 10.8125 C9.460625 11.534375 9.23375 12.25625 9 13 C7.68 13 6.36 13 5 13 C4.58427734 11.84371094 4.58427734 11.84371094 4.16015625 10.6640625 C3.79792969 9.66117188 3.43570312 8.65828125 3.0625 7.625 C2.70285156 6.62726563 2.34320313 5.62953125 1.97265625 4.6015625 C1.07650708 2.06495835 1.07650708 2.06495835 0 0 Z " fill="#060606" transform="translate(288,157)"/>
<path d="M0 0 C2 3 2 3 2 6 C2.99 6 3.98 6 5 6 C4.67 4.35 4.34 2.7 4 1 C4.66 1.33 5.32 1.66 6 2 C6.1953125 8.0546875 6.1953125 8.0546875 6 10 C5.34 10.66 4.68 11.32 4 12 C3.34 11.67 2.68 11.34 2 11 C2 10.34 2 9.68 2 9 C0.68 8.67 -0.64 8.34 -2 8 C-1.125 1.125 -1.125 1.125 0 0 Z " fill="#333333" transform="translate(293,134)"/>
<path d="M0 0 C0.66 0.33 1.32 0.66 2 1 C2 2.65 2 4.3 2 6 C2.66 6.33 3.32 6.66 4 7 C4.33 7.66 4.66 8.32 5 9 C4.01 9.33 3.02 9.66 2 10 C1.67 11.65 1.34 13.3 1 15 C0.34 13.68 -0.32 12.36 -1 11 C-1.99 11.99 -2.98 12.98 -4 14 C-4.66 13.67 -5.32 13.34 -6 13 C-5.67 11.68 -5.34 10.36 -5 9 C-5 9.66 -5 10.32 -5 11 C-4.01 10.34 -3.02 9.68 -2 9 C-1.63702064 7.02252878 -1.63702064 7.02252878 -1.8125 4.875 C-1.874375 3.59625 -1.93625 2.3175 -2 1 C-1.34 0.67 -0.68 0.34 0 0 Z " fill="#515151" transform="translate(246,105)"/>
<path d="M0 0 C1.98 0 3.96 0 6 0 C6.33 1.65 6.66 3.3 7 5 C5.35 5.33 3.7 5.66 2 6 C2.33 7.65 2.66 9.3 3 11 C1.68 10.67 0.36 10.34 -1 10 C-0.67 6.7 -0.34 3.4 0 0 Z " fill="#484848" transform="translate(251,302)"/>
<path d="M0 0 C0.66 0 1.32 0 2 0 C3.32 3.63 4.64 7.26 6 11 C4.68 11 3.36 11 2 11 C2 9.68 2 8.36 2 7 C1.01 7 0.02 7 -1 7 C-1 8.32 -1 9.64 -1 11 C-1.99 10.67 -2.98 10.34 -4 10 C-2.68 6.7 -1.36 3.4 0 0 Z " fill="#494949" transform="translate(232,302)"/>
<path d="M0 0 C0.45375 0.495 0.9075 0.99 1.375 1.5 C2.87635519 3.22609337 2.87635519 3.22609337 5 3 C4.67 4.65 4.34 6.3 4 8 C3.01 8 2.02 8 1 8 C1 9.65 1 11.3 1 13 C-1 12 -1 12 -2.3125 8.75 C-3 5 -3 5 -1.625 2.0625 C-1.08875 1.381875 -0.5525 0.70125 0 0 Z " fill="#282828" transform="translate(287,164)"/>
<path d="M0 0 C0.99 0 1.98 0 3 0 C3 3.3 3 6.6 3 10 C3.66 9.67 4.32 9.34 5 9 C5.46651207 6.87423218 5.46651207 6.87423218 5.625 4.4375 C5.69976562 3.61121094 5.77453125 2.78492188 5.8515625 1.93359375 C5.90054687 1.29550781 5.94953125 0.65742188 6 0 C6.66 0.33 7.32 0.66 8 1 C7.85950482 2.47968324 7.71245174 3.95874516 7.5625 5.4375 C7.48128906 6.26121094 7.40007812 7.08492188 7.31640625 7.93359375 C7 10 7 10 6 11 C4.33382885 11.04063832 2.66611905 11.042721 1 11 C-0.20272819 8.59454362 -0.10071472 7.05003047 -0.0625 4.375 C-0.05347656 3.55773437 -0.04445313 2.74046875 -0.03515625 1.8984375 C-0.02355469 1.27195312 -0.01195312 0.64546875 0 0 Z " fill="#393939" transform="translate(302,302)"/>
<path d="M0 0 C0.66 0 1.32 0 2 0 C3.32 3.63 4.64 7.26 6 11 C4.68 10.67 3.36 10.34 2 10 C2 9.01 2 8.02 2 7 C1.01 7 0.02 7 -1 7 C-1 8.32 -1 9.64 -1 11 C-1.99 10.67 -2.98 10.34 -4 10 C-2.68 6.7 -1.36 3.4 0 0 Z " fill="#3E3E3E" transform="translate(295,302)"/>
<path d="M0 0 C2.64 0 5.28 0 8 0 C7.67 1.32 7.34 2.64 7 4 C6.67 3.34 6.34 2.68 6 2 C5.01 1.67 4.02 1.34 3 1 C3 2.32 3 3.64 3 5 C3.66 5.33 4.32 5.66 5 6 C4.34 6 3.68 6 3 6 C3 7.32 3 8.64 3 10 C6.0745356 9.2236068 6.0745356 9.2236068 8 7 C8 8.32 8 9.64 8 11 C5.36 11 2.72 11 0 11 C0 7.37 0 3.74 0 0 Z " fill="#232323" transform="translate(324,302)"/>
<path d="M0 0 C-3.38779144 3.58707329 -6.73545141 6.49689539 -11 9 C-11.99 9 -12.98 9 -14 9 C-12.55069329 5.40415253 -10.77247922 3.81167344 -7.5625 1.6875 C-6.78003906 1.15511719 -5.99757813 0.62273438 -5.19140625 0.07421875 C-3 -1 -3 -1 0 0 Z " fill="#191919" transform="translate(280,60)"/>
<path d="M0 0 C3 0 3 0 5.1875 1.4375 C7.83090667 5.17473012 7.34148909 8.56064182 7 13 C6.01 13.33 5.02 13.66 4 14 C3.87882812 13.07316406 3.75765625 12.14632812 3.6328125 11.19140625 C3.46523438 9.99386719 3.29765625 8.79632813 3.125 7.5625 C2.96257812 6.36753906 2.80015625 5.17257813 2.6328125 3.94140625 C2.42398437 2.97074219 2.21515625 2.00007812 2 1 C1.34 0.67 0.68 0.34 0 0 Z " fill="#5A5A5A" transform="translate(282,186)"/>
<path d="M0 0 C0.66 0.33 1.32 0.66 2 1 C1.67 1.66 1.34 2.32 1 3 C1.29910704 4.44995698 1.66242802 5.88709385 2.0625 7.3125 C3.00924051 11.1997789 3.07855961 13.42025845 1 17 C0.01 16.34 -0.98 15.68 -2 15 C-1.85816304 13.24967156 -1.71136571 11.49974466 -1.5625 9.75 C-1.48128906 8.77546875 -1.40007812 7.8009375 -1.31640625 6.796875 C-1.04925416 4.43538247 -0.64628032 2.28098935 0 0 Z " fill="#737373" transform="translate(284,167)"/>
<path d="M0 0 C0.66 0.33 1.32 0.66 2 1 C2.625 3.0625 2.625 3.0625 3 5 C3.66 3.68 4.32 2.36 5 1 C5.93065133 3.60582371 6.14917407 4.64198224 5.0625 7.25 C4.711875 7.8275 4.36125 8.405 4 9 C1.0625 8.25 1.0625 8.25 -2 7 C-2.9375 5 -2.9375 5 -3 3 C-2.67 2.34 -2.34 1.68 -2 1 C-1.67 1.33 -1.34 1.66 -1 2 C-0.67 1.34 -0.34 0.68 0 0 Z " fill="#585858" transform="translate(271,170)"/>
<path d="M0 0 C1.32 0.33 2.64 0.66 4 1 C3.67 3.97 3.34 6.94 3 10 C3.66 9.67 4.32 9.34 5 9 C5.33 8.01 5.66 7.02 6 6 C6.66 6 7.32 6 8 6 C8 7.65 8 9.3 8 11 C5.36 11 2.72 11 0 11 C0 7.37 0 3.74 0 0 Z " fill="#1C1C1C" transform="translate(281,302)"/>
<path d="M0 0 C0.66 0.66 1.32 1.32 2 2 C1.9375 4.4375 1.9375 4.4375 1 7 C-1.4375 8.875 -1.4375 8.875 -4 10 C-4.66 9.67 -5.32 9.34 -6 9 C-5.67 7.35 -5.34 5.7 -5 4 C-3.35 4 -1.7 4 0 4 C0 2.68 0 1.36 0 0 Z " fill="#333333" transform="translate(263,171)"/>
<path d="M0 0 C0.66 0 1.32 0 2 0 C4 3 4 3 3.875 5.5625 C3 8 3 8 0.9453125 9.15234375 C0.30335938 9.43207031 -0.33859375 9.71179688 -1 10 C-1.02689216 8.52093108 -1.04634621 7.04172517 -1.0625 5.5625 C-1.07410156 4.73878906 -1.08570313 3.91507813 -1.09765625 3.06640625 C-1 1 -1 1 0 0 Z " fill="#030303" transform="translate(284,195)"/>
<path d="M0 0 C1.485 0.99 1.485 0.99 3 2 C3 2.66 3 3.32 3 4 C3.66 4 4.32 4 5 4 C5.33 5.98 5.66 7.96 6 10 C4.35 9.67 2.7 9.34 1 9 C0.29925156 5.846632 0 3.27275026 0 0 Z " fill="#202020" transform="translate(290,143)"/>
<path d="M0 0 C0.99 0.33 1.98 0.66 3 1 C2.01 1.495 2.01 1.495 1 2 C1 2.99 1 3.98 1 5 C-3.455 5.495 -3.455 5.495 -8 6 C-8.33 5.01 -8.66 4.02 -9 3 C-7.88625 2.87625 -6.7725 2.7525 -5.625 2.625 C-1.96896323 2.3534187 -1.96896323 2.3534187 0 0 Z " fill="#252525" transform="translate(339,284)"/>
<path d="M0 0 C2.32590854 3.63423209 2.16265833 6.77088331 2 11 C0.125 10.8125 0.125 10.8125 -2 10 C-3.25 7.4375 -3.25 7.4375 -4 5 C-3.34 4.34 -2.68 3.68 -2 3 C-1.67 4.32 -1.34 5.64 -1 7 C-0.67 4.69 -0.34 2.38 0 0 Z " fill="#9A9A9A" transform="translate(256,150)"/>
<path d="M0 0 C2.9375 1.25 2.9375 1.25 6 3 C6.875 5.1875 6.875 5.1875 7 7 C6.01 7.33 5.02 7.66 4 8 C4 7.34 4 6.68 4 6 C3.01 5.67 2.02 5.34 1 5 C-0.1875 2.9375 -0.1875 2.9375 -1 1 C-0.67 0.67 -0.34 0.34 0 0 Z " fill="#080808" transform="translate(277,203)"/>
<path d="M0 0 C1.32 0.33 2.64 0.66 4 1 C4 3.31 4 5.62 4 8 C2.68 8.33 1.36 8.66 0 9 C0 6.03 0 3.06 0 0 Z " fill="#C6C6C6" transform="translate(327,303)"/>
<path d="M0 0 C0.99 0 1.98 0 3 0 C3 2.97 3 5.94 3 9 C2.01 9.33 1.02 9.66 0 10 C0 6.7 0 3.4 0 0 Z " fill="#F4F4F4" transform="translate(305,302)"/>
<path d="M0 0 C0.99 0.33 1.98 0.66 3 1 C3 3.31 3 5.62 3 8 C1.35 8 -0.3 8 -2 8 C-2 7.01 -2 6.02 -2 5 C-1.34 5 -0.68 5 0 5 C0 3.35 0 1.7 0 0 Z " fill="#F5F5F5" transform="translate(332,301)"/>
<path d="M0 0 C0.66 0 1.32 0 2 0 C2.12117187 0.63808594 2.24234375 1.27617187 2.3671875 1.93359375 C2.53476563 2.75988281 2.70234375 3.58617187 2.875 4.4375 C3.03742188 5.26121094 3.19984375 6.08492188 3.3671875 6.93359375 C3.57601562 7.61550781 3.78484375 8.29742187 4 9 C4.66 9.33 5.32 9.66 6 10 C4.68 10 3.36 10 2 10 C1.67 9.34 1.34 8.68 1 8 C0.01 8.495 0.01 8.495 -1 9 C-0.67 6.03 -0.34 3.06 0 0 Z " fill="#676767" transform="translate(220,303)"/>
<path d="M0 0 C0.99 0.33 1.98 0.66 3 1 C4.125 4.4375 4.125 4.4375 5 8 C5.33 8.66 5.66 9.32 6 10 C4.125 9.8125 4.125 9.8125 2 9 C0.21715186 5.70173093 0 3.8225249 0 0 Z " fill="#757575" transform="translate(315,303)"/>
<path d="M0 0 C2.62386487 3.06117568 3 3.73173127 3 8 C4.32 8.33 5.64 8.66 7 9 C6.01 9.33 5.02 9.66 4 10 C3.01 11.485 3.01 11.485 2 13 C0.875 7.25 0.875 7.25 2 5 C1.01 5.33 0.02 5.66 -1 6 C-0.67 4.02 -0.34 2.04 0 0 Z " fill="#BEBEBE" transform="translate(290,162)"/>
<path d="M0 0 C0.33 1.32 0.66 2.64 1 4 C-0.32 4.33 -1.64 4.66 -3 5 C-3.33 6.32 -3.66 7.64 -4 9 C-6.31 9 -8.62 9 -11 9 C-10.34 8.01 -9.68 7.02 -9 6 C-8.34 6.33 -7.68 6.66 -7 7 C-6.67 6.34 -6.34 5.68 -6 5 C-5.67 5.33 -5.34 5.66 -5 6 C-4.67 5.34 -4.34 4.68 -4 4 C-3.01 3.67 -2.02 3.34 -1 3 C-0.67 2.01 -0.34 1.02 0 0 Z " fill="#BDBDBD" transform="translate(272,83)"/>
<path d="M0 0 C0.66 0 1.32 0 2 0 C2.33 1.65 2.66 3.3 3 5 C0.10765685 5.82638376 -1.88742431 6 -5 6 C-4.67 4.68 -4.34 3.36 -4 2 C-3.67 2.66 -3.34 3.32 -3 4 C-2.34 3.67 -1.68 3.34 -1 3 C-0.67 2.01 -0.34 1.02 0 0 Z " fill="#2D2D2D" transform="translate(284,207)"/>
<path d="M0 0 C0.66 0 1.32 0 2 0 C2.33 1.32 2.66 2.64 3 4 C2.01 4.495 2.01 4.495 1 5 C1 6.98 1 8.96 1 11 C-1.01544839 8.73262056 -1.94914998 7.42714016 -2.3125 4.375 C-2 2 -2 2 0 0 Z " fill="#4A4A4A" transform="translate(255,139)"/>
<path d="M0 0 C0.33 0.99 0.66 1.98 1 3 C2.32 2.67 3.64 2.34 5 2 C3.68 4.31 2.36 6.62 1 9 C0.34 9 -0.32 9 -1 9 C-1.33 6.69 -1.66 4.38 -2 2 C-1.34 2 -0.68 2 0 2 C0 1.34 0 0.68 0 0 Z " fill="#D5D5D5" transform="translate(268,110)"/>
<path d="M0 0 C0.33 0.66 0.66 1.32 1 2 C1.66 2.33 2.32 2.66 3 3 C3 5.64 3 8.28 3 11 C2.01 11.33 1.02 11.66 0 12 C-0.66 11.34 -1.32 10.68 -2 10 C-0.68 10 0.64 10 2 10 C1.67 8.02 1.34 6.04 1 4 C0.34 4 -0.32 4 -1 4 C-1.33 3.01 -1.66 2.02 -2 1 C-1.34 0.67 -0.68 0.34 0 0 Z " fill="#CDCDCD" transform="translate(294,143)"/>
<path d="M0 0 C0.66 0.99 1.32 1.98 2 3 C2.66 3.33 3.32 3.66 4 4 C4 6.31 4 8.62 4 11 C2 8 2 8 1 6 C0.67 6.99 0.34 7.98 0 9 C-0.66 8.67 -1.32 8.34 -2 8 C-1.34 5.36 -0.68 2.72 0 0 Z " fill="#797979" transform="translate(292,129)"/>
<path d="M0 0 C3.3 0 6.6 0 10 0 C9.67 1.32 9.34 2.64 9 4 C8.05125 3.835 7.1025 3.67 6.125 3.5 C3.19831099 2.9473365 3.19831099 2.9473365 1 3 C0.67 2.01 0.34 1.02 0 0 Z " fill="#161616" transform="translate(329,245)"/>
<path d="M0 0 C1.32 0 2.64 0 4 0 C4.33 0.99 4.66 1.98 5 3 C1.25 6 1.25 6 -1 6 C-0.67 4.02 -0.34 2.04 0 0 Z " fill="#292929" transform="translate(273,225)"/>
<path d="M0 0 C2.64455995 3.96683992 3.28109187 7.15282485 2.5625 11.875 C2.376875 12.57625 2.19125 13.2775 2 14 C1.67 13.34 1.34 12.68 1 12 C0.34 11.67 -0.32 11.34 -1 11 C-0.835 10.484375 -0.67 9.96875 -0.5 9.4375 C0.15049 6.26636124 0.0620734 3.22781666 0 0 Z " fill="#E9E9E9" transform="translate(280,190)"/>
<path d="M0 0 C0.66 0 1.32 0 2 0 C1.49396008 2.16874252 1.00016187 3.99967627 0 6 C0.99 6.33 1.98 6.66 3 7 C2.34 7 1.68 7 1 7 C0.67 7.66 0.34 8.32 0 9 C-0.66 9 -1.32 9 -2 9 C-2 8.34 -2 7.68 -2 7 C-2.66 6.67 -3.32 6.34 -4 6 C-3.01 6 -2.02 6 -1 6 C-1.020625 5.195625 -1.04125 4.39125 -1.0625 3.5625 C-1 1 -1 1 0 0 Z " fill="#252525" transform="translate(256,88)"/>
<path d="M0 0 C0.125 6.75 0.125 6.75 -1 9 C-1.66 9 -2.32 9 -3 9 C-3.33 6.69 -3.66 4.38 -4 2 C-1 0 -1 0 0 0 Z " fill="#E8E8E8" transform="translate(231,253)"/>
<path d="M0 0 C1.65 0.33 3.3 0.66 5 1 C4.67 2.32 4.34 3.64 4 5 C2.35 5.33 0.7 5.66 -1 6 C-0.67 4.02 -0.34 2.04 0 0 Z " fill="#333333" transform="translate(298,217)"/>
<path d="M0 0 C2.31 0.33 4.62 0.66 7 1 C7.33 1.99 7.66 2.98 8 4 C7.67 4.66 7.34 5.32 7 6 C5.1875 5.8125 5.1875 5.8125 3 5 C1.25 2.4375 1.25 2.4375 0 0 Z " fill="#454545" transform="translate(318,138)"/>
<path d="M0 0 C0.33 0.66 0.66 1.32 1 2 C-1.31 2.66 -3.62 3.32 -6 4 C-6 5.32 -6 6.64 -6 8 C-6.66 8 -7.32 8 -8 8 C-8 7.34 -8 6.68 -8 6 C-8.66 5.67 -9.32 5.34 -10 5 C-6.75490696 2.96022723 -3.59391114 1.33488128 0 0 Z " fill="#424242" transform="translate(266,70)"/>
<path d="M0 0 C0.66 0.33 1.32 0.66 2 1 C0.75453595 4.73639216 -0.63404953 5.18756513 -4 7 C-4.99 6.34 -5.98 5.68 -7 5 C-4.69 3.35 -2.38 1.7 0 0 Z " fill="#262626" transform="translate(297,45)"/>
<path d="M0 0 C1 3 1 3 0 6 C0.99 6 1.98 6 3 6 C3.33 5.01 3.66 4.02 4 3 C4 4.32 4 5.64 4 7 C3.34 7 2.68 7 2 7 C1.67 7.66 1.34 8.32 1 9 C0.01 8.67 -0.98 8.34 -2 8 C-1.125 1.125 -1.125 1.125 0 0 Z " fill="#707070" transform="translate(278,161)"/>
<path d="M0 0 C0.99 0 1.98 0 3 0 C3 0.66 3 1.32 3 2 C2.34 2 1.68 2 1 2 C1.66 3.65 2.32 5.3 3 7 C2.01 7.33 1.02 7.66 0 8 C-1 7 -1 7 -1.125 4 C-1 1 -1 1 0 0 Z " fill="#070707" transform="translate(294,171)"/>
<path d="M0 0 C0.66 0.33 1.32 0.66 2 1 C2 3.97 2 6.94 2 10 C1.34 9.67 0.68 9.34 0 9 C-0.73075648 6.6859378 -1.40138258 4.35171131 -2 2 C-1.34 1.34 -0.68 0.68 0 0 Z " fill="#090909" transform="translate(286,167)"/>
<path d="M0 0 C2.31 0 4.62 0 7 0 C6.34 1.32 5.68 2.64 5 4 C4.01 3.67 3.02 3.34 2 3 C2 3.66 2 4.32 2 5 C1.34 5 0.68 5 0 5 C-0.33 4.01 -0.66 3.02 -1 2 C-0.67 1.34 -0.34 0.68 0 0 Z " fill="#8D8D8D" transform="translate(286,154)"/>
<path d="M0 0 C0.33 0.66 0.66 1.32 1 2 C3.01669827 3.13350534 3.01669827 3.13350534 5 4 C4.01 4.99 3.02 5.98 2 7 C1.67 6.34 1.34 5.68 1 5 C0.34 5 -0.32 5 -1 5 C-0.67 3.35 -0.34 1.7 0 0 Z " fill="#515151" transform="translate(235,109)"/>
<path d="M0 0 C0.99 0 1.98 0 3 0 C3.33 1.98 3.66 3.96 4 6 C2.68 5.67 1.36 5.34 0 5 C0 3.35 0 1.7 0 0 Z " fill="#222222" transform="translate(308,41)"/>
<path d="M0 0 C0.33 0 0.66 0 1 0 C1.33 1.65 1.66 3.3 2 5 C2.99 5.33 3.98 5.66 5 6 C4.01 7.485 4.01 7.485 3 9 C2.01 9 1.02 9 0 9 C0 6.03 0 3.06 0 0 Z " fill="#C8C8C8" transform="translate(243,303)"/>
<path d="M0 0 C0.99 0 1.98 0 3 0 C3 1.65 3 3.3 3 5 C1.68 5 0.36 5 -1 5 C-0.67 3.35 -0.34 1.7 0 0 Z " fill="#0D0D0D" transform="translate(258,217)"/>
<path d="M0 0 C0.66 0 1.32 0 2 0 C2 1.65 2 3.3 2 5 C-0.64 5 -3.28 5 -6 5 C-3 3 -3 3 -1 3 C-0.67 2.01 -0.34 1.02 0 0 Z " fill="#525252" transform="translate(287,308)"/>
<path d="M0 0 C0 0.66 0 1.32 0 2 C-1.98 2.99 -1.98 2.99 -4 4 C-4.99 3.01 -5.98 2.02 -7 1 C-3.375 -1.125 -3.375 -1.125 0 0 Z " fill="#161616" transform="translate(259,246)"/>
<path d="M0 0 C0.99 0 1.98 0 3 0 C3 0.99 3 1.98 3 3 C3.66 3.33 4.32 3.66 5 4 C3.02 4.99 3.02 4.99 1 6 C0.67 4.02 0.34 2.04 0 0 Z " fill="#040404" transform="translate(248,107)"/>
<path d="M0 0 C2 1 2 1 3.125 4.0625 C3.41375 5.031875 3.7025 6.00125 4 7 C2.68 7 1.36 7 0 7 C0 4.69 0 2.38 0 0 Z " fill="#343434" transform="translate(234,306)"/>
<path d="M0 0 C0.66 0 1.32 0 2 0 C2 1.65 2 3.3 2 5 C1.01 5.33 0.02 5.66 -1 6 C-1.625 4.125 -1.625 4.125 -2 2 C-1.34 1.34 -0.68 0.68 0 0 Z " fill="#111111" transform="translate(283,190)"/>
<path d="M0 0 C0.93065133 2.60582371 1.14917407 3.64198224 0.0625 6.25 C-0.4634375 7.11625 -0.4634375 7.11625 -1 8 C-1.66 8 -2.32 8 -3 8 C-2.37240135 5.07120629 -1.41377341 2.63904371 0 0 Z " fill="#414141" transform="translate(276,171)"/>
<path d="M0 0 C0.99 0 1.98 0 3 0 C2.67 1.65 2.34 3.3 2 5 C0.68 4.34 -0.64 3.68 -2 3 C-1.34 2.01 -0.68 1.02 0 0 Z " fill="#202020" transform="translate(259,98)"/>
</svg>
